<svg width="24" height="24" viewBox="0 0 24 24" fill="none" xmlns="http://www.w3.org/2000/svg">
<g id="Frame">
<path id="Vector" d="M12 22C17.5228 22 22 17.5228 22 12C22 6.47715 17.5228 2 12 2C6.47715 2 2 6.47715 2 12C2 17.5228 6.47715 22 12 22Z" stroke="#141B34" stroke-width="1.5"/>
<path id="Vector_2" d="M22 13.2644C21.0732 13.0906 20.12 13 19.1472 13C13.7948 13 9.03435 15.7425 6 20" stroke="#141B34" stroke-width="1.5" stroke-linejoin="round"/>
<path id="Vector_3" d="M19 5C15.8705 8.66742 11.1679 11 5.90962 11C4.56437 11 3.25548 10.8473 2 10.5587" stroke="#141B34" stroke-width="1.5" stroke-linejoin="round"/>
<path id="Vector_4" d="M14.6178 22C14.8684 20.786 15 19.5287 15 18.2407C15 11.9247 11.8343 6.34645 7 3" stroke="#141B34" stroke-width="1.5" stroke-linejoin="round"/>
</g>
</svg>
