<svg width="24" height="24" viewBox="0 0 24 24" fill="none" xmlns="http://www.w3.org/2000/svg">
<g id="github-mark-white" clip-path="url(#clip0_533_176)">
<path id="Vector" fill-rule="evenodd" clip-rule="evenodd" d="M12.0099 0C5.36875 0 0 5.38539 0 12.0479C0 17.3735 3.43994 21.8816 8.21205 23.4771C8.80869 23.5971 9.02724 23.2179 9.02724 22.8989C9.02724 22.6196 9.00757 21.6623 9.00757 20.6647C5.6667 21.383 4.97099 19.2286 4.97099 19.2286C4.43409 17.8323 3.63858 17.4734 3.63858 17.4734C2.54511 16.7354 3.71823 16.7354 3.71823 16.7354C4.93117 16.8152 5.56763 17.972 5.56763 17.972C6.64118 19.807 8.37111 19.2885 9.06706 18.9693C9.16638 18.1914 9.48473 17.6528 9.82275 17.3537C7.15817 17.0744 4.35469 16.0372 4.35469 11.4094C4.35469 10.093 4.8316 9.01588 5.58729 8.17821C5.46807 7.87908 5.0504 6.64215 5.70677 4.98663C5.70677 4.98663 6.72083 4.66742 9.00732 6.22331C9.98625 5.95959 10.9958 5.82543 12.0099 5.8243C13.024 5.8243 14.0577 5.96408 15.0123 6.22331C17.299 4.66742 18.3131 4.98663 18.3131 4.98663C18.9695 6.64215 18.5515 7.87908 18.4323 8.17821C19.2079 9.01588 19.6652 10.093 19.6652 11.4094C19.6652 16.0372 16.8617 17.0543 14.1772 17.3537C14.6148 17.7326 14.9924 18.4506 14.9924 19.5877C14.9924 21.2033 14.9727 22.4999 14.9727 22.8987C14.9727 23.2179 15.1915 23.5971 15.7879 23.4774C20.56 21.8813 23.9999 17.3735 23.9999 12.0479C24.0196 5.38539 18.6312 0 12.0099 0Z" fill="#F7FAFC"/>
</g>
<defs>
<clipPath id="clip0_533_176">
<rect width="24" height="24" fill="white"/>
</clipPath>
</defs>
</svg>
