<svg width="100" height="100" viewBox="0 0 100 100" fill="none" xmlns="http://www.w3.org/2000/svg">
<rect width="100" height="100" rx="20" fill="black"/>
<path d="M16 18.5H15.5V19V80V80.5H16H33H33.5V80V71.5862V71.0862H33H24.7927V27.9138H33H33.5V27.4138V19V18.5H33H16ZM66.5 27.4138V27.9138H67H75.2073V71.0862H67H66.5V71.5862V80V80.5H67H84H84.5V80V19V18.5H84H67H66.5V19V27.4138ZM29.5976 53.4966V53.9966H30.0976H57.4634H57.9634V53.4966V45.0828V44.5828H57.4634H30.0976H29.5976V45.0828V53.4966Z" fill="#3F8517" stroke="white"/>
<rect x="0.5" y="0.5" width="99" height="99" rx="19.5" stroke="#3F8517" stroke-opacity="0.4"/>
</svg>
