<svg width="183" height="183" viewBox="0 0 183 183" fill="none" xmlns="http://www.w3.org/2000/svg">
<rect y="0.000244141" width="183" height="183" rx="24" fill="black"/>
<path d="M25.7408 91.9435V83.0785C32.3994 83.0785 37.0486 81.7192 39.6884 79.0007C42.3281 76.2427 43.648 71.692 43.648 65.3487V48.3871C43.648 42.3589 44.3178 37.296 45.6574 33.1985C47.0364 29.0615 49.1246 25.7519 51.922 23.2697C54.7194 20.7875 58.2653 18.9949 62.5599 17.8917C66.8545 16.7885 71.9173 16.2369 77.7485 16.2369V30.2435C73.1781 30.2435 69.6125 30.9133 67.0515 32.2529C64.4905 33.5925 62.6978 35.6807 61.6734 38.5174C60.6884 41.3148 60.1959 44.9002 60.1959 49.2736V70.7858C60.1959 73.8196 59.7428 76.6367 58.8366 79.2371C57.9304 81.798 56.2559 84.0241 53.8132 85.9153C51.3704 87.8065 47.8835 89.284 43.3525 90.3478C38.8216 91.4116 32.951 91.9435 25.7408 91.9435ZM77.7485 167C71.9173 167 66.8545 166.448 62.5599 165.345C58.2653 164.242 54.7194 162.449 51.922 159.967C49.1246 157.485 47.0364 154.175 45.6574 150.038C44.3178 145.941 43.648 140.878 43.648 134.85V117.829C43.648 111.525 42.3281 106.994 39.6884 104.236C37.0486 101.478 32.3994 100.099 25.7408 100.099V91.2934C32.951 91.2934 38.8216 91.8253 43.3525 92.8891C47.8835 93.9135 51.3704 95.391 53.8132 97.3216C56.2559 99.2127 57.9304 101.459 58.8366 104.059C59.7428 106.62 60.1959 109.417 60.1959 112.451V133.963C60.1959 138.297 60.6884 141.863 61.6734 144.66C62.6978 147.497 64.4905 149.585 67.0515 150.925C69.6125 152.304 73.1781 152.993 77.7485 152.993V167ZM25.7408 100.099V83.0785H42.1114V100.099H25.7408Z" fill="white"/>
<path d="M156.384 91.2934V100.099C149.726 100.099 145.076 101.478 142.437 104.236C139.797 106.994 138.477 111.525 138.477 117.829V134.85C138.477 140.878 137.787 145.941 136.408 150.038C135.069 154.175 133 157.485 130.203 159.967C127.406 162.449 123.86 164.242 119.565 165.345C115.27 166.448 110.208 167 104.376 167V152.993C108.947 152.993 112.513 152.304 115.073 150.925C117.634 149.585 119.407 147.497 120.392 144.66C121.417 141.863 121.929 138.297 121.929 133.963V112.451C121.929 109.417 122.382 106.62 123.288 104.059C124.195 101.459 125.869 99.2127 128.312 97.3216C130.755 95.391 134.241 93.9135 138.772 92.8891C143.303 91.8253 149.174 91.2934 156.384 91.2934ZM104.376 16.2369C110.208 16.2369 115.27 16.7885 119.565 17.8917C123.86 18.9949 127.406 20.7875 130.203 23.2697C133 25.7519 135.069 29.0615 136.408 33.1985C137.787 37.296 138.477 42.3589 138.477 48.3871V65.3487C138.477 71.692 139.797 76.2427 142.437 79.0007C145.076 81.7192 149.726 83.0785 156.384 83.0785V91.9435C149.174 91.9435 143.303 91.4116 138.772 90.3478C134.241 89.284 130.755 87.8065 128.312 85.9153C125.869 84.0241 124.195 81.798 123.288 79.2371C122.382 76.6367 121.929 73.8196 121.929 70.7858V49.2736C121.929 44.9002 121.417 41.3148 120.392 38.5174C119.407 35.6807 117.634 33.5925 115.073 32.2529C112.513 30.9133 108.947 30.2435 104.376 30.2435V16.2369ZM156.384 83.0785V100.099H140.014V83.0785H156.384Z" fill="white"/>
</svg>
