<svg width="36" height="36" viewBox="0 0 36 36" fill="none" xmlns="http://www.w3.org/2000/svg">
<g id="outline-gradient">
<path id="Rectangle 5" d="M0 8.52632C0 3.81736 3.81736 0 8.52632 0H27.4737C32.1826 0 36 3.81736 36 8.52632V32.2105C36 34.3034 34.3034 36 32.2105 36H8.52632C3.81736 36 0 32.1826 0 27.4737V8.52632Z" fill="url(#paint0_linear_520_71)"/>
<path id="Vector" fill-rule="evenodd" clip-rule="evenodd" d="M26.0891 3.78949L9.91095 3.78949C6.53016 3.78949 3.78949 6.53016 3.78949 9.91095L3.78949 26.0891C3.78949 29.4699 6.53016 32.2105 9.91095 32.2105H19.3118H26.0891H28.7126C30.6444 32.2105 32.2105 30.6444 32.2105 28.7126V26.0891V19.3118V9.91095C32.2105 6.53016 29.4699 3.78949 26.0891 3.78949ZM12.9717 10.3482L23.0284 10.3482C24.4773 10.3482 25.6518 11.5228 25.6518 12.9717V14.2743C25.6518 15.1245 24.9626 15.8138 24.1124 15.8138L19.3118 15.8138C17.3799 15.8138 15.8138 17.3799 15.8138 19.3118L15.8138 24.1124C15.8138 24.9626 15.1245 25.6518 14.2743 25.6518H12.9717C11.5228 25.6518 10.3482 24.4773 10.3482 23.0284L10.3482 12.9717C10.3482 11.5228 11.5228 10.3482 12.9717 10.3482ZM27.9474 24.0122C27.9474 26.1855 26.1855 27.9474 24.0122 27.9474C22.424 27.9474 21.0555 27.0066 20.4338 25.6518C20.2047 25.1527 20.0769 24.5973 20.0769 24.0122C20.0769 21.8388 21.8388 20.0769 24.0122 20.0769C24.5973 20.0769 25.1527 20.2047 25.6518 20.4338C27.0066 21.0555 27.9474 22.424 27.9474 24.0122Z" fill="#F7FAFC"/>
</g>
<defs>
<linearGradient id="paint0_linear_520_71" x1="18" y1="0" x2="18" y2="36" gradientUnits="userSpaceOnUse">
<stop stop-color="#00A1FB"/>
<stop offset="1" stop-color="#4900E3"/>
</linearGradient>
</defs>
</svg>
